ply
format ascii 1.0
comment created by 'decimator'
element vertex 227
property float x
property float y
property float z
element face 450
property list uchar int vertex_indices
end_header
0.093290 2.425800 0.343720
0.227910 2.171100 0.245350
0.328990 2.213400 -0.011645
0.484070 1.345100 0.643080
0.857710 1.856500 0.284990
0.845700 1.276100 0.317070
0.979690 1.854100 -0.271900
-0.516910 0.719920 -0.740950
-0.569060 0.395330 -0.450800
-1.268700 1.323400 0.181210
-0.771610 0.836840 0.463010
0.037955 0.892120 0.715640
-0.578130 0.295440 0.238820
0.690070 -0.094962 -0.493910
0.340240 -0.179450 0.471140
0.836590 -1.407500 0.462410
0.122690 -1.730900 0.496850
-0.435650 -1.035800 0.542530
1.004400 -2.186500 0.594470
-0.439590 -2.306100 0.815120
-0.576060 -2.531800 -0.169200
-0.581770 -2.095800 -0.418510
-0.272390 -2.080000 -0.416860
0.318790 -2.195700 -0.379330
0.781060 -2.555500 -0.117320
1.012100 -2.378800 0.280560
0.098051 -2.468100 0.325100
-0.376670 2.416200 0.476730
-0.207850 1.973400 0.559650
-0.172550 2.506900 -0.019285
0.159220 1.711500 0.551190
0.137830 1.344700 0.689770
-0.237680 2.207900 -0.401480
0.331710 2.101900 -0.489010
0.980490 1.954000 0.085213
1.127600 1.462100 0.234660
1.136500 1.105700 0.076308
1.221300 1.529300 -0.049939
0.474350 1.254200 -0.800380
-0.900520 1.855500 -0.354810
-1.079200 1.259900 -0.321570
-0.720390 0.616180 0.224230
-0.539320 0.627080 0.695700
-0.540550 0.880420 0.856920
0.702130 1.141300 0.723130
0.563790 -0.262360 0.342340
-0.730650 -0.603630 -0.541860
0.103020 -0.974050 -0.768180
0.317900 -0.624690 0.571410
-0.176080 -0.604440 0.569720
-0.488770 -1.282400 0.579560
-0.876690 -0.705250 0.128310
-0.984750 -1.188000 0.151050
-0.412870 -1.836000 0.783270
0.932880 -2.072100 0.731890
0.808460 -2.113200 0.836940
-0.728760 -2.417500 -0.158420
-0.940040 -1.537900 -0.305470
-0.762630 -2.028400 -0.345930
-0.121010 -2.479300 -0.240410
-0.005192 -1.821000 -0.679290
0.356340 -1.716400 -0.870370
0.555740 -2.532600 -0.225600
0.570930 -2.156500 -0.451700
0.977910 -2.442500 -0.016863
0.134710 2.242300 0.418500
0.072888 2.318000 0.583080
-0.043770 2.258500 0.697020
-0.146450 2.284400 0.729610
-0.359570 2.501400 0.373410
-0.223460 1.806600 0.543400
-0.538980 1.982700 -0.537290
0.568430 2.100400 -0.360610
0.960390 1.734900 0.298510
1.184700 1.234300 0.142570
1.206600 1.435900 0.139330
1.113400 1.759900 0.092305
0.942340 1.991700 -0.066150
0.681900 1.917900 -0.511440
1.107100 1.321200 -0.354630
1.024600 1.547200 -0.415100
0.763170 1.612600 -0.572010
0.198710 1.965700 -0.636220
0.327540 1.725400 -0.759960
0.790160 1.020300 -0.400840
-0.067263 1.412600 -0.770010
-0.717810 1.328700 -0.676800
-0.907560 1.151700 -0.391010
-0.971490 1.726600 -0.388320
-1.241200 1.056800 0.046042
-1.233000 1.103100 0.334640
-0.995000 1.028200 0.505800
-1.010500 1.339300 0.490180
-0.612920 1.133100 0.677810
-0.196680 0.565850 0.700250
-0.368460 0.456950 0.596280
-0.268030 0.924400 0.859210
0.560230 1.041600 0.785700
0.864470 0.752190 0.061873
0.882070 0.870650 0.057660
0.240350 0.618900 -0.859010
-0.300840 0.697270 -0.838870
0.364350 -0.044018 -0.722510
-0.561950 0.080626 -0.388650
-0.026065 -0.048375 0.503590
0.822460 -0.071760 -0.159680
0.462450 -0.552100 -0.684430
0.934310 -0.603890 0.010876
0.656280 -0.919030 0.421950
0.434990 -0.597310 0.531470
-0.024868 -0.632900 0.594030
-0.698410 -0.625980 0.338820
-0.039082 -1.628500 0.567240
0.346750 -2.309500 0.829800
-0.111690 -2.245700 0.821410
-0.857810 -2.266400 0.504020
-0.801480 -2.476600 0.199520
-0.832160 -2.391200 -0.012431
-1.012900 -1.722600 0.177430
-0.779960 -1.109800 -0.593930
-0.723420 -1.591900 -0.697790
-0.247770 -2.544300 -0.268890
0.074163 -2.336300 -0.069776
0.000947 -2.062400 -0.200530
-0.079399 -1.804000 -0.662950
-0.065836 -1.456800 -0.740550
-0.256530 -1.911100 -0.685520
0.293860 -2.060800 -0.618670
0.510710 -1.926900 -0.707230
1.063300 -2.229600 0.089713
1.103500 -2.131100 0.244510
1.033800 -1.895600 0.541260
-0.363030 -2.370000 0.758750
-0.655150 -2.518900 0.227340
-0.031332 -2.559000 -0.091501
-0.192010 -2.589800 -0.134120
0.475370 -2.588800 -0.087264
0.809630 -2.534100 0.083028
0.878870 -2.273000 0.573940
0.236780 2.125000 0.295390
0.000407 1.968100 0.539130
-0.397460 2.113200 0.433160
-0.476680 2.224600 0.196290
-0.401720 2.311300 -0.156530
-0.142440 2.521000 0.005883
0.452470 1.972600 0.288910
-0.032602 2.517400 0.121090
-0.223590 2.338200 0.691930
-0.324030 2.528100 0.194900
-0.672520 1.425400 0.596810
-0.710530 1.920600 0.239510
0.652660 1.393700 0.559560
0.822270 1.131600 0.298670
0.783510 1.332200 0.462710
1.259200 1.322600 -0.064918
1.221900 1.325900 -0.208440
0.168690 1.612400 -0.793090
-0.525850 1.736900 -0.704500
-0.525380 1.411600 -0.775390
-1.101400 1.580200 -0.297230
-1.119300 1.677400 0.038930
-0.848990 0.891340 -0.166010
-1.157100 1.055900 -0.152000
-0.883270 0.705760 0.221320
-1.206800 1.338700 0.363570
-1.065300 1.013500 0.474340
-1.124200 1.517000 0.358490
-0.746360 0.868120 0.514100
-0.596910 0.774430 0.792500
-0.370420 0.696000 0.840100
0.711450 0.965500 0.685960
0.561670 0.599720 0.529820
0.786760 1.125000 0.602180
0.865600 0.560220 0.093394
0.453570 0.521170 -0.791370
-0.251880 0.362760 -0.811510
-0.394160 0.280510 -0.717590
0.816170 0.009015 -0.041249
-0.380220 -0.325270 -0.666370
-0.587600 -0.478710 -0.622090
-0.495370 -0.196520 -0.591090
-0.506310 -0.152440 0.229720
0.145200 -0.357660 0.427890
-0.633820 -0.149870 0.000034
-0.109830 -0.332670 0.503190
0.283410 -0.354150 0.480490
-0.854840 -0.764180 -0.328790
0.746090 -0.857380 -0.628450
0.825350 -0.908050 -0.537330
0.918930 -0.806880 -0.351880
0.611080 -1.462500 -0.752430
1.047800 -1.266300 0.099136
0.312350 -1.581000 0.553000
0.101030 -1.541600 0.601440
-0.946720 -1.475900 0.375170
0.443490 -1.587300 0.591370
0.706990 -1.992500 0.841680
0.428380 -2.158300 0.887020
0.426470 -2.251600 0.884380
0.258050 -2.141100 0.780860
0.121980 -2.188000 0.683500
0.009290 -2.302700 0.735680
-0.570300 -2.086000 0.793510
-0.752340 -2.192400 0.668730
-0.662690 -2.365300 0.678640
-0.902100 -2.323500 0.168570
-0.853710 -1.229700 -0.471450
-0.786520 -1.215200 -0.586380
-0.656510 -1.249700 -0.755140
-0.419110 -2.476600 -0.308790
-0.197650 -1.708200 -0.789000
-0.681450 -1.740600 -0.690860
-0.408650 -1.790300 -0.789820
-0.358510 -1.386500 -0.874180
-0.432290 -1.497200 -0.869020
0.300240 -1.441400 -0.899770
0.453980 -1.366900 -0.862230
0.127590 -1.838600 -0.781410
0.144270 -1.620500 -0.873400
0.232920 -2.163100 -0.366490
0.239340 -2.491600 -0.103600
0.911520 -2.119100 -0.216650
0.875040 -2.434500 -0.165020
1.064600 -2.171400 0.501690
0.112000 -2.400300 0.499400
0.084652 -2.490200 0.162610
0.097188 -2.469600 0.041525
3 66 140 65
3 149 93 96
3 30 140 28
3 72 33 29
3 151 73 4
3 155 37 154
3 41 161 12
3 164 92 166
3 31 3 30
3 172 151 44
3 13 174 84
3 176 178 180
3 102 106 176
3 41 104 95
3 103 46 183
3 106 47 178
3 13 105 189
3 202 50 111
3 195 192 199
3 55 18 54
3 58 21 209
3 179 208 46
3 212 213 210
3 125 215 218
3 128 127 217
3 128 63 127
3 221 129 222
3 191 130 129
3 141 28 27
3 141 27 142
3 146 0 1
3 146 2 144
3 70 30 28
3 143 142 148
3 143 148 29
3 150 142 143
3 72 144 2
3 29 33 32
3 2 1 145
3 65 30 3
3 146 144 148
3 146 148 69
3 69 147 66
3 139 3 151
3 149 96 31
3 143 39 160
3 88 71 157
3 72 77 78
3 2 34 77
3 152 74 5
3 74 75 35
3 6 76 37
3 77 34 76
3 6 77 76
3 81 38 83
3 78 83 82
3 82 71 32
3 101 158 85
3 86 157 158
3 150 143 160
3 162 161 41
3 163 91 165
3 43 96 93
3 169 42 94
3 169 168 42
3 173 152 170
3 14 171 94
3 84 174 38
3 176 180 103
3 176 8 7
3 12 184 104
3 45 177 14
3 173 14 177
3 183 46 186
3 183 186 51
3 179 47 213
3 189 129 188
3 108 48 193
3 109 185 110
3 195 108 192
3 193 110 49
3 110 182 184
3 112 17 50
3 112 53 114
3 131 18 223
3 195 199 196
3 199 113 197
3 53 50 202
3 205 118 57
3 115 118 205
3 58 209 56
3 186 52 51
3 186 119 207
3 211 57 120
3 126 58 212
3 121 59 134
3 22 124 123
3 124 126 210
3 213 47 125
3 127 60 217
3 61 216 190
3 61 215 216
3 61 128 217
3 221 190 188
3 63 24 62
3 221 63 128
3 64 24 222
3 55 197 18
3 200 224 199
3 133 135 26
3 133 204 116
3 20 121 135
3 25 26 137
3 138 113 26
3 66 65 0
3 1 65 139
3 68 28 67
3 143 32 71
3 68 66 147
3 139 151 145
3 150 160 166
3 82 32 33
3 6 78 77
3 151 4 145
3 74 35 5
3 36 99 79
3 78 81 83
3 82 157 71
3 85 158 157
3 86 87 40
3 86 7 87
3 159 39 88
3 159 40 9
3 40 161 162
3 40 87 161
3 160 164 166
3 90 89 163
3 90 9 89
3 164 165 92
3 149 150 166
3 10 167 92
3 93 167 168
3 96 11 31
3 43 168 169
3 94 95 104
3 152 172 170
3 14 94 104
3 174 100 38
3 13 189 188
3 173 177 105
3 102 176 175
3 103 180 179
3 12 183 181
3 14 104 182
3 13 173 105
3 51 111 181
3 106 178 176
3 106 187 216
3 107 108 15
3 108 193 192
3 109 110 48
3 110 184 49
3 52 194 51
3 111 17 49
3 111 49 184
3 195 196 15
3 55 196 197
3 197 198 138
3 53 202 114
3 52 118 194
3 186 207 206
3 46 208 119
3 22 123 122
3 22 21 126
3 213 125 210
3 60 125 218
3 63 23 127
3 220 226 122
3 219 23 220
3 221 128 190
3 129 130 64
3 129 64 222
3 107 130 191
3 107 15 131
3 26 113 224
3 201 224 200
3 115 116 204
3 59 226 134
3 137 136 24
3 25 18 138
3 69 142 27
3 147 27 28
3 68 147 28
3 28 140 67
3 68 67 66
3 1 0 65
3 146 1 2
3 65 140 30
3 66 67 140
3 141 142 150
3 69 148 142
3 143 29 32
3 144 29 148
3 72 29 144
3 72 2 77
3 34 145 4
3 1 139 145
3 65 3 139
3 69 66 0
3 146 69 0
3 69 27 147
3 151 153 73
3 149 30 70
3 149 31 30
3 141 150 70
3 141 70 28
3 149 70 150
3 143 71 39
3 2 145 34
3 76 4 73
3 5 35 153
3 172 5 153
3 73 153 35
3 36 74 152
3 36 152 99
3 36 154 74
3 154 75 74
3 73 35 75
3 76 73 75
3 76 34 4
3 72 78 33
3 37 76 75
3 6 37 155
3 6 155 80
3 154 37 75
3 6 80 81
3 6 81 78
3 36 79 155
3 98 84 99
3 79 80 155
3 36 155 154
3 84 79 99
3 84 80 79
3 84 81 80
3 78 82 33
3 156 82 83
3 84 38 81
3 100 83 38
3 156 85 82
3 156 83 100
3 85 157 82
3 156 175 85
3 86 158 7
3 86 40 88
3 87 8 161
3 161 8 12
3 87 7 8
3 86 88 157
3 88 39 71
3 159 160 39
3 159 9 160
3 159 88 40
3 162 41 163
3 40 162 89
3 9 164 160
3 40 89 9
3 162 163 89
3 90 163 165
3 90 164 9
3 163 41 10
3 91 92 165
3 10 92 91
3 90 165 164
3 149 166 92
3 149 92 167
3 149 167 93
3 41 42 10
3 163 10 91
3 10 42 167
3 42 168 167
3 41 95 42
3 43 93 168
3 96 169 94
3 96 94 11
3 94 42 95
3 43 169 96
3 171 11 94
3 41 12 104
3 171 97 11
3 31 11 3
3 11 97 3
3 173 170 171
3 171 170 97
3 170 44 97
3 3 97 44
3 3 44 151
3 172 153 151
3 170 172 44
3 152 5 172
3 98 152 173
3 173 171 14
3 98 99 152
3 13 84 173
3 98 173 84
3 13 102 174
3 107 191 105
3 156 100 175
3 174 102 100
3 175 101 85
3 175 158 101
3 175 7 158
3 175 176 7
3 176 103 8
3 102 175 100
3 178 179 180
3 12 181 184
3 12 103 183
3 12 8 103
3 184 182 104
3 45 14 185
3 107 105 177
3 14 182 185
3 110 185 182
3 46 119 186
3 103 179 46
3 178 47 179
3 106 216 215
3 13 188 102
3 102 187 106
3 102 188 187
3 189 191 129
3 190 216 187
3 190 187 188
3 107 131 223
3 107 223 130
3 189 105 191
3 107 177 45
3 109 45 185
3 107 45 109
3 107 109 108
3 195 15 108
3 108 109 48
3 193 48 110
3 16 192 112
3 112 192 193
3 183 51 181
3 51 194 111
3 112 193 17
3 193 49 17
3 111 184 181
3 203 111 194
3 111 50 17
3 201 112 114
3 16 112 200
3 201 200 112
3 112 50 53
3 115 203 194
3 16 200 192
3 15 54 131
3 131 54 18
3 55 54 196
3 15 196 54
3 197 113 198
3 199 197 196
3 200 199 192
3 114 19 132
3 114 202 19
3 204 202 203
3 204 19 202
3 115 204 203
3 202 111 203
3 115 194 118
3 115 205 116
3 116 205 117
3 116 117 56
3 52 57 118
3 205 57 117
3 58 117 57
3 186 57 52
3 116 56 20
3 58 56 117
3 20 209 121
3 211 58 57
3 120 206 119
3 119 206 207
3 208 120 119
3 186 206 57
3 120 57 206
3 179 214 208
3 179 213 214
3 135 121 134
3 22 122 59
3 209 59 121
3 22 59 209
3 22 209 21
3 20 56 209
3 122 226 59
3 22 126 124
3 219 124 60
3 126 212 210
3 126 21 58
3 211 212 58
3 211 120 214
3 212 214 213
3 208 214 120
3 211 214 212
3 47 215 125
3 106 215 47
3 124 210 125
3 219 60 127
3 219 123 124
3 219 122 123
3 124 125 60
3 60 218 217
3 61 217 218
3 61 218 215
3 61 190 128
3 219 127 23
3 219 220 122
3 220 23 62
3 220 62 136
3 63 222 24
3 63 62 23
3 221 222 63
3 64 137 24
3 25 130 223
3 25 64 130
3 221 188 129
3 25 223 18
3 138 198 113
3 197 138 18
3 199 224 113
3 201 26 224
3 201 114 132
3 204 132 19
3 133 26 204
3 201 132 26
3 133 20 135
3 204 26 132
3 133 116 20
3 134 226 225
3 135 134 225
3 26 135 225
3 220 136 225
3 220 225 226
3 24 136 62
3 25 137 64
3 136 26 225
3 137 26 136
3 25 138 26
