ply
format ascii 1.0
comment created by 'decimator'
element vertex 442
property float x
property float y
property float z
element face 880
property list uchar int vertex_indices
end_header
0.665240 0.893750 6.020300
0.610100 0.899450 6.075800
0.481820 0.889180 6.085900
0.292170 -0.946570 6.410500
0.138540 -0.964620 6.286400
0.272260 -0.804530 6.266100
0.249530 0.198690 6.689500
0.358440 0.168610 6.634200
0.688820 1.546200 5.897000
0.681100 1.140400 6.044600
0.204140 1.588800 5.833300
0.113800 1.582300 5.798600
0.843180 2.028600 5.690000
0.755870 2.107900 5.687600
0.912310 2.000000 5.335200
0.600430 2.099700 5.745100
0.466840 2.044300 5.813200
0.994400 2.037700 5.017600
1.357000 1.317900 4.783600
1.334800 1.104000 4.756500
1.918000 1.509500 4.443000
1.904200 1.438300 4.486200
1.949000 1.915200 4.193300
1.961200 2.328300 3.952800
1.965300 2.241400 3.989500
1.876000 2.948400 3.817500
1.236300 2.589900 4.292800
1.238200 3.678100 3.716000
0.628700 3.917000 3.692100
0.752120 3.886500 3.707600
0.648540 1.631800 5.966500
0.340770 1.899300 5.807600
0.379440 1.683100 5.973200
0.487230 1.614400 5.987300
0.640500 2.539300 7.234000
0.695020 2.628100 7.120200
0.685080 2.639200 7.188800
0.723980 2.471600 6.737500
0.581220 2.480600 7.218100
0.539540 2.266200 6.763700
0.507370 2.678100 7.402400
0.525970 2.645500 7.407000
0.540020 2.703500 7.416300
0.572970 2.733300 7.303100
0.530370 2.719100 7.357700
0.563020 2.744500 7.371700
1.994100 1.911500 4.068100
1.924500 1.457000 4.317800
1.407600 2.013500 3.251100
1.969500 2.295100 3.893600
1.973600 2.208100 3.930300
1.911200 2.906000 3.698600
0.920990 2.459000 3.193400
1.680600 3.350900 3.687800
1.742200 3.276300 3.689100
0.806170 2.510000 3.183900
1.263000 3.723200 3.625900
0.777650 3.892100 3.631300
1.676500 1.727300 -3.425400
1.577400 -0.436800 0.735500
1.152700 -0.489200 -1.746700
1.044600 -0.791210 0.389330
1.480500 -1.296900 1.761800
0.631920 -1.597400 1.353200
0.666100 -1.311700 0.706430
0.565140 -1.496700 0.975320
0.920800 -0.735850 -2.047100
0.776890 -0.921450 -2.690600
0.412780 -0.120020 -4.411100
0.239250 -0.196900 -4.329900
0.586160 0.908930 -5.069500
1.332600 -0.161200 -4.123700
1.967200 0.166710 -2.143900
2.139800 -1.031600 -2.968800
2.553700 -2.777300 -3.550500
2.378400 -2.747200 -3.297500
2.518200 -2.750000 -3.341000
2.317800 -2.687800 -4.197400
1.059600 -0.649170 -4.119500
1.283300 -0.534740 -4.171600
0.801860 -0.879010 -3.644400
0.872680 -0.734790 -3.970700
1.723300 -2.847000 -3.380900
1.592200 -2.939200 -3.610000
2.048400 -1.639900 -3.073900
1.955500 -1.295100 -2.919500
1.756600 -1.337300 -2.910800
2.255200 -2.819700 -3.221800
2.612700 -3.334100 -3.938200
2.187900 -3.332600 -4.141400
1.837200 -3.369800 -4.064200
1.703900 -3.404400 -3.801000
1.757800 -3.369800 -3.985100
1.963500 -3.650400 -2.831000
2.122000 -3.650400 -2.803000
2.061900 -3.588500 -2.823000
2.623400 -3.578500 -2.907500
2.575700 -3.651900 -2.875400
2.912800 -3.581200 -3.368000
2.598900 -3.383600 -2.968000
1.973100 -1.664500 1.096200
1.992700 -1.031400 0.815050
2.002200 -2.222500 1.147300
1.896000 -2.415700 1.219000
1.940800 -2.419000 0.596700
1.557400 -2.757700 1.229400
1.140100 -2.464700 1.257400
1.234300 -2.718200 1.154000
1.052900 -2.595000 1.037700
1.027900 -2.434900 0.609460
1.967400 -2.199200 0.604890
1.599000 -3.362200 0.536940
2.065000 -3.565700 0.791230
0.923380 -3.579800 0.946680
1.043200 -3.372200 0.678760
2.178800 -3.389000 0.910900
2.132100 -3.219100 0.798970
2.145100 -3.565700 0.885660
2.148800 -3.598200 0.985490
1.827300 -3.660600 1.705700
1.775100 -3.613700 1.730400
1.701100 -3.607200 1.746500
1.653900 -3.654000 1.759500
1.138800 -3.603800 1.604700
1.097500 -3.654800 1.590800
1.247900 -3.656100 1.667100
1.196000 -3.605100 1.635700
1.193600 -3.469800 1.583800
1.981000 1.293700 4.546000
1.965900 1.246200 4.570600
1.968400 1.228100 4.557400
1.916500 1.181100 4.590300
2.064100 1.691200 4.259500
2.047900 1.635100 4.335500
2.077900 2.108200 4.048400
2.075400 2.118200 4.066200
2.070200 2.057100 4.107200
2.083800 2.056000 4.069600
2.057500 2.531200 3.872300
2.053900 2.623200 3.835700
2.055000 2.541200 3.890100
1.886000 3.182900 3.766300
1.904600 3.124700 3.801400
1.526200 3.584600 3.771400
1.595100 3.539500 3.754300
1.533600 3.598200 3.744300
0.996960 3.907700 3.722200
1.085600 3.867300 3.724500
1.093000 3.880900 3.697400
1.004600 3.909300 3.699200
0.301270 4.063700 3.621100
0.301270 4.061200 3.648400
0.405160 4.051500 3.655300
2.348500 -3.403100 -2.932500
2.335100 -3.582700 -2.863300
2.273100 -3.650400 -2.827900
2.424700 -3.651900 -2.850500
2.372900 -3.584200 -2.867200
1.458800 -3.475300 1.635100
1.465100 -3.605100 1.694000
1.431900 -3.607200 1.688200
1.419200 -3.645000 1.559600
1.260000 -3.678400 1.761300
1.248300 -3.655800 1.790400
1.208100 -3.627400 1.729800
1.377400 -3.629400 1.766900
1.317100 -3.655800 1.806300
1.328800 -3.678400 1.777200
1.473700 -3.557300 1.754200
1.530300 -3.672100 1.818100
1.517400 -3.648900 1.843500
1.476900 -3.623200 1.784100
1.646200 -3.625200 1.821100
1.586100 -3.648900 1.859400
1.599000 -3.672100 1.834100
1.920500 -3.691700 1.748100
1.947900 -3.669000 1.775500
1.868200 -3.644800 1.772800
2.013100 -3.669000 1.708800
2.832900 -3.520600 -2.927700
2.823500 -3.662700 -2.912300
2.845300 -3.619500 -2.897000
2.903200 -3.619500 -2.946100
2.881400 -3.662700 -2.961300
2.474400 -3.665800 -2.769600
2.479300 -3.625200 -2.742500
2.422600 -3.598100 -2.786300
2.598800 -3.592300 -2.814400
2.555900 -3.625200 -2.755200
2.551100 -3.665800 -2.782200
2.176800 -3.622800 -2.703900
2.110400 -3.599200 -2.746600
2.170500 -3.661100 -2.726500
2.309200 -3.593400 -2.774600
2.253500 -3.622800 -2.716500
2.247200 -3.661100 -2.739200
2.260300 -3.531600 -2.751700
1.830300 -3.661100 -2.816100
1.788200 -3.620300 -2.816600
1.832500 -3.620300 -2.789100
1.874600 -3.661100 -2.788600
0.938450 -3.674300 1.577900
0.896210 -3.642000 1.580800
1.036600 -3.623300 1.636600
0.953030 -3.642000 1.625800
0.995270 -3.674300 1.622800
-1.068000 -3.623300 1.636600
-1.026700 -3.674300 1.622800
-0.984460 -3.642000 1.625800
-0.969880 -3.674300 1.577900
-0.927640 -3.642000 1.580800
-1.906000 -3.661100 -2.788600
-1.863900 -3.620300 -2.789100
-1.861700 -3.661100 -2.816100
-1.819600 -3.620300 -2.816600
-1.790400 -3.519000 -2.890700
-2.291700 -3.531600 -2.751700
-2.340600 -3.593400 -2.774600
-2.278600 -3.661100 -2.739200
-2.284900 -3.622800 -2.716500
-2.202000 -3.661100 -2.726500
-2.141800 -3.599200 -2.746600
-2.208200 -3.622800 -2.703900
-2.630200 -3.592300 -2.814400
-2.582500 -3.665800 -2.782200
-2.587400 -3.625200 -2.755200
-2.505800 -3.665800 -2.769600
-2.454000 -3.598100 -2.786300
-2.510700 -3.625200 -2.742500
-2.912800 -3.662700 -2.961300
-2.934600 -3.619500 -2.946100
-2.876700 -3.619500 -2.897000
-2.864300 -3.520600 -2.927700
-2.044500 -3.669000 1.708800
-1.951900 -3.691700 1.748100
-1.899700 -3.644800 1.772800
-1.979400 -3.669000 1.775500
-1.677600 -3.625200 1.821100
-1.630400 -3.672100 1.834100
-1.617600 -3.648900 1.859400
-1.561700 -3.672100 1.818100
-1.508300 -3.623200 1.784100
-1.548800 -3.648900 1.843500
-1.505100 -3.557300 1.754200
-1.408900 -3.629400 1.766900
-1.360200 -3.678400 1.777200
-1.348500 -3.655800 1.806300
-1.291500 -3.678400 1.761300
-1.239500 -3.627400 1.729800
-1.279800 -3.655800 1.790400
-1.450600 -3.645000 1.559600
-1.463400 -3.607200 1.688200
-1.496500 -3.605100 1.694000
-1.490200 -3.475300 1.635100
-1.457100 -3.477300 1.629400
-2.304500 -3.650400 -2.827900
-2.366500 -3.582700 -2.863300
-2.404300 -3.584200 -2.867200
-2.456100 -3.651900 -2.850500
-2.380000 -3.403100 -2.932500
-0.332700 4.063700 3.621100
-0.444260 4.053200 3.632400
-1.124400 3.880900 3.697400
-1.565000 3.598200 3.744300
-1.626500 3.539500 3.754300
-1.946600 3.112000 3.765700
-1.936000 3.124700 3.801400
-1.898800 3.178000 3.790300
-1.917400 3.182900 3.766300
-2.086400 2.541200 3.890100
-2.074700 2.636000 3.871400
-2.085300 2.623200 3.835700
-2.115200 2.056000 4.069600
-2.106800 2.118200 4.066200
-2.109300 2.108300 4.048400
-2.081300 1.619300 4.297900
-2.079300 1.635100 4.335500
-2.082000 1.692300 4.297100
-2.095500 1.691200 4.259500
-2.014300 1.278000 4.508400
-1.948000 1.181100 4.590300
-1.999800 1.228100 4.557400
-1.997300 1.246200 4.570600
-2.012400 1.293700 4.546000
-1.225100 -3.469800 1.583800
-1.170200 -3.603800 1.604700
-1.227400 -3.605100 1.635700
-1.128900 -3.654800 1.590800
-1.732500 -3.607200 1.746500
-1.806500 -3.613700 1.730400
-1.858700 -3.660600 1.705700
-1.685300 -3.654000 1.759500
-2.180200 -3.598200 0.985490
-2.176500 -3.565700 0.885660
-1.074600 -3.372200 0.678760
-0.954810 -3.579800 0.946680
-2.096400 -3.565700 0.791230
-1.630400 -3.362200 0.536940
-1.059300 -2.434900 0.609460
-1.084300 -2.595000 1.037700
-1.833400 -2.761300 1.229500
-1.588900 -2.757700 1.229400
-1.972600 -2.770600 1.193400
-1.013500 -1.942800 1.325500
-0.873910 -1.889900 1.150200
-2.023600 -1.150300 0.743590
-1.079100 -2.206000 0.873320
-1.169700 -2.136100 0.640780
-1.596800 -1.824600 1.408000
-2.944200 -3.581200 -3.368000
-2.654800 -3.578500 -2.907500
-1.995000 -3.650400 -2.831000
-2.024600 -3.588400 -2.840000
-2.093300 -3.588400 -2.823000
-1.847900 -3.112800 -3.242800
-1.712900 -3.423500 -3.412300
-1.789200 -3.369800 -3.985100
-1.735300 -3.404400 -3.801000
-1.868600 -3.369800 -4.064200
-2.219300 -3.332600 -4.141400
-2.644100 -3.334100 -3.938200
-1.970800 -1.189000 -2.744600
-2.286600 -2.819700 -3.221800
-1.654700 -2.347000 -3.349500
-0.925130 -1.017800 -3.208500
-1.116300 -1.021500 -2.783800
-0.904110 -0.734790 -3.970700
-0.833290 -0.879010 -3.644400
-1.927400 -2.729300 -4.287900
-1.314800 -0.534740 -4.171600
-1.091000 -0.649160 -4.119500
-2.585100 -2.777300 -3.550500
-2.549600 -2.750000 -3.341000
-2.409800 -2.747200 -3.297500
-2.347300 -2.178500 -3.312300
-0.617590 0.908930 -5.069500
-0.061433 -0.064752 -5.105300
-1.100000 -0.306580 -4.214100
-0.504300 -0.441860 -4.091000
0.063398 -1.054200 -2.330300
-0.405740 -1.434200 1.022000
-0.596570 -1.496700 0.975320
-0.578290 -1.514300 1.688900
-1.960300 -0.565180 1.349800
-1.076000 -0.791210 0.389330
-1.031100 -0.702320 0.176860
-0.919910 -1.007800 0.465590
-1.184100 -0.489200 -1.746700
-1.783900 0.206170 -1.675000
-1.881000 1.491800 0.178680
-1.608800 -0.436800 0.735500
-1.817800 1.146000 0.995410
-1.892700 1.109800 1.113300
-1.454800 2.481700 -2.919900
-0.041343 1.063240 -10.299800
0.009919 1.063240 -10.299800
0.038163 0.977659 -10.259700
0.037243 0.903670 -10.248000
0.008999 0.854331 -10.257500
-0.040424 0.854331 -10.257500
-0.068668 0.903670 -10.248000
-0.069588 0.977659 -10.259700
-0.041343 1.359200 -9.954300
0.009919 1.359200 -9.954300
-0.154610 3.784900 -2.578500
0.123180 3.864900 -2.093300
-0.081492 3.979000 3.558400
-0.174300 2.713600 3.082700
0.142880 2.713600 3.082700
-0.561680 2.596300 3.178600
-1.773600 3.276300 3.689100
-1.972200 2.803200 3.712000
-2.005000 2.208100 3.930300
-2.000900 2.295100 3.893600
-1.487800 1.916200 3.277800
-1.439000 2.013500 3.251100
-1.942100 1.385800 4.361000
-1.955900 1.457000 4.317800
-2.021600 1.835500 4.106900
-2.025500 1.911500 4.068100
-1.531500 1.716500 3.333200
-0.604390 2.733300 7.303100
-0.594450 2.744500 7.371700
-0.571450 2.703500 7.416300
-0.557390 2.645500 7.407000
-0.538790 2.678100 7.402400
-0.594050 2.513200 7.213500
-0.612650 2.480600 7.218100
-0.655110 2.585000 7.080300
-0.612510 2.570700 7.134900
-0.716500 2.639200 7.188800
-0.726450 2.628100 7.120200
-0.671920 2.539300 7.234000
-0.518650 1.614400 5.987300
-0.410860 1.683100 5.973200
-0.679970 1.631800 5.966500
0.050068 3.970700 3.649100
-0.081492 3.970700 3.649100
-1.711900 3.260100 3.769000
-1.907500 2.948400 3.817500
-1.937000 2.845600 3.830800
-1.992600 2.328300 3.952800
-1.996700 2.241400 3.989500
-1.980400 1.915200 4.193300
-1.976500 1.839100 4.232100
-1.917200 1.404000 4.553600
-1.949400 1.509500 4.443000
0.088270 2.222300 5.082400
-0.498260 2.044300 5.813200
-0.787290 2.107900 5.687600
-0.874610 2.028600 5.690000
-1.228500 0.941510 4.677500
-0.418650 1.570300 5.942600
-0.720240 1.546200 5.897000
-1.160800 1.103100 4.904500
-0.280960 0.198690 6.689500
-0.079253 -0.945410 6.245500
-0.194940 -0.912520 6.246300
-0.074117 -0.982970 6.706100
0.042692 -0.982970 6.706100
-0.136490 -1.145200 6.378900
-0.116650 -1.147600 6.326800
-0.054275 -1.159700 6.308600
0.022850 -1.159700 6.308600
0.085220 -1.147600 6.326800
0.105060 -1.145200 6.378900
-0.311700 -0.942880 6.513100
-0.454240 0.678800 6.205900
-0.513240 0.889180 6.085900
0.047828 -0.976680 6.145700
-0.079253 -0.976680 6.145700
-0.756710 0.310860 3.977300
-0.185870 -0.291910 3.669800
0.154440 -0.291910 3.669800
-0.039913 0.250600 7.252000
-0.070306 0.272950 7.239400
-0.074194 0.302610 7.225800
-0.043801 0.322560 7.219900
0.012376 0.322560 7.219900
0.042769 0.302610 7.225800
0.038881 0.272950 7.239400
0.008488 0.250600 7.252000
3 431 432 426
3 420 418 426
3 419 441 434
3 417 430 416
3 414 403 405
3 262 410 409
3 261 409 260
3 264 273 410
3 413 393 395
3 281 279 380
3 374 274 372
3 370 369 375
3 369 261 366
3 282 283 279
3 282 279 281
3 275 277 278
3 276 277 275
3 272 273 274
3 269 270 271
3 374 372 373
3 267 268 265
3 267 265 266
3 369 364 375
3 374 351 352
3 358 338 359
3 343 380 352
3 345 350 349
3 308 380 343
3 431 411 280
3 340 62 342
3 339 324 327
3 347 348 321
3 353 337 349
3 348 349 337
3 340 348 347
3 348 345 349
3 353 335 337
3 320 337 328
3 317 326 327
3 322 334 333
3 334 323 321
3 334 321 337
3 320 328 319
3 318 319 328
3 318 328 326
3 316 326 317
3 315 314 215
3 258 229 311
3 213 318 316
3 338 326 330
3 338 330 329
3 322 314 323
3 323 314 315
3 332 225 322
3 332 322 333
3 230 331 309
3 431 380 308
3 305 343 350
3 431 303 304
3 299 303 301
3 308 343 300
3 340 342 341
3 299 306 303
3 305 344 307
3 298 305 307
3 298 297 305
3 296 305 297
3 296 293 305
3 301 300 239
3 210 299 208
3 291 290 250
3 417 432 430
3 431 342 432
3 431 280 281
3 414 405 282
3 380 376 377
3 376 279 283
3 277 378 278
3 405 404 277
3 406 276 275
3 380 275 278
3 380 278 378
3 372 274 402
3 410 403 414
3 272 379 403
3 374 373 271
3 273 402 274
3 370 371 265
3 270 400 371
3 269 401 270
3 269 373 401
3 370 268 398
3 398 266 399
3 370 265 268
3 264 402 273
3 264 398 402
3 264 263 370
3 261 260 366
3 366 260 397
3 302 236 235
3 310 232 231
3 230 332 331
3 259 227 257
3 322 228 227
3 259 217 216
3 259 256 217
3 322 216 222
3 209 207 287
3 284 285 206
3 203 123 127
3 203 108 204
3 87 196 153
3 154 153 193
3 196 193 153
3 99 187 96
3 87 186 185
3 153 157 186
3 99 76 187
3 99 181 179
3 99 96 181
3 98 74 182
3 178 175 119
3 103 177 176
3 171 168 158
3 159 171 158
3 105 173 172
3 160 158 165
3 126 164 127
3 127 164 107
3 150 396 151
3 151 396 26
3 57 152 28
3 57 29 146
3 57 149 148
3 150 152 57
3 56 147 27
3 26 147 146
3 53 54 144
3 26 143 27
3 26 144 143
3 141 51 54
3 141 142 51
3 142 25 51
3 141 26 142
3 141 54 26
3 138 23 49
3 139 25 140
3 134 48 50
3 46 137 22
3 26 135 24
3 134 50 24
3 47 133 20
3 132 22 133
3 26 133 22
3 21 128 47
3 128 130 100
3 19 131 18
3 134 101 48
3 131 100 130
3 48 58 365
3 118 124 205
3 161 118 178
3 117 112 115
3 108 109 202
3 113 202 109
3 107 163 166
3 103 105 177
3 178 118 115
3 115 104 103
3 115 110 116
3 61 114 109
3 113 109 114
3 112 111 110
3 63 65 106
3 105 106 107
3 103 104 110
3 105 62 106
3 61 59 101
3 101 59 48
3 87 153 186
3 87 95 191
3 67 86 66
3 82 199 87
3 58 77 71
3 78 81 68
3 93 183 180
3 83 91 198
3 90 92 81
3 90 78 89
3 88 89 77
3 86 80 84
3 77 79 71
3 357 70 358
3 68 69 70
3 60 85 73
3 58 71 70
3 48 365 52
3 67 339 80
3 67 66 340
3 60 61 340
3 62 100 131
3 433 62 131
3 144 145 143
3 146 147 148
3 149 146 148
3 150 151 152
3 139 48 51
3 139 140 138
3 134 135 136
3 134 136 137
3 128 129 130
3 150 57 368
3 54 145 144
3 138 49 48
3 101 132 133
3 33 8 30
3 10 31 407
3 26 396 397
3 26 23 140
3 26 140 25
3 26 21 20
3 19 18 7
3 8 12 30
3 10 407 11
3 433 19 7
3 412 393 413
3 32 9 33
3 9 8 33
3 9 0 18
3 9 2 1
3 419 425 3
3 0 1 2
3 7 439 440
3 427 6 0
3 9 26 17
3 9 14 12
3 9 427 2
3 18 131 129
3 53 26 54
3 28 26 29
3 48 49 50
3 54 48 52
3 56 54 55
3 56 145 54
3 57 146 149
3 368 367 366
3 58 70 357
3 74 84 75
3 58 357 356
3 74 75 76
3 86 84 85
3 197 91 90
3 98 93 200
3 93 94 95
3 180 156 155
3 99 179 76
3 101 100 102
3 103 110 102
3 103 102 62
3 61 109 64
3 111 113 114
3 118 205 201
3 115 116 104
3 117 118 112
3 161 119 122
3 121 122 120
3 161 125 118
3 120 122 119
3 121 120 105
3 177 105 120
3 125 126 124
3 126 123 124
3 107 164 163
3 113 201 202
3 93 155 94
3 155 156 157
3 155 157 154
3 159 160 161
3 159 161 171
3 252 250 251
3 301 254 244
3 257 255 256
3 258 255 257
3 322 259 216
3 399 266 265
3 250 287 286
3 286 287 285
3 292 234 233
3 291 289 290
3 291 288 289
3 296 297 295
3 295 234 292
3 296 292 293
3 297 294 295
3 307 344 346
3 341 304 346
3 300 302 237
3 292 233 302
3 431 304 342
3 300 343 302
3 306 346 304
3 229 224 231
3 310 231 224
3 311 312 255
3 313 255 312
3 213 311 229
3 309 318 213
3 328 330 326
3 331 332 333
3 331 333 334
3 336 338 358
3 320 331 337
3 339 336 69
3 340 64 65
3 340 63 62
3 305 292 343
3 345 346 344
3 340 347 339
3 335 361 360
3 356 357 355
3 357 358 355
3 358 359 355
3 359 360 355
3 360 361 355
3 361 354 355
3 375 353 349
3 368 55 365
3 369 366 367
3 262 369 370
3 269 271 373
3 262 263 410
3 28 152 26
3 262 409 261
3 401 398 270
3 11 412 9
3 412 413 9
3 410 273 272
3 7 0 6
3 420 421 422
3 420 422 423
3 420 423 424
3 420 424 425
3 426 427 428
3 427 0 2
3 5 433 7
3 425 424 3
3 417 426 432
3 429 433 4
3 9 12 8
3 9 17 14
3 9 18 26
3 10 9 32
3 9 1 0
3 10 11 9
3 407 15 13
3 12 14 13
3 31 16 407
3 407 13 14
3 407 14 17
3 7 18 0
3 18 129 128
3 26 18 128
3 26 20 133
3 26 22 136
3 26 24 23
3 26 25 142
3 152 151 26
3 407 17 26
3 26 27 147
3 10 32 31
3 46 101 137
3 46 132 101
3 101 47 128
3 101 133 47
3 54 52 55
3 54 51 48
3 150 368 366
3 56 55 368
3 56 57 148
3 56 368 57
3 433 131 19
3 21 47 20
3 46 22 132
3 49 23 24
3 50 49 24
3 139 51 25
3 139 138 48
3 57 28 29
3 56 27 145
3 365 55 52
3 58 363 365
3 356 355 363
3 73 74 58
3 365 363 362
3 48 72 58
3 48 59 72
3 60 72 59
3 60 59 61
3 340 61 64
3 60 340 66
3 101 128 100
3 432 62 433
3 432 342 62
3 71 79 68
3 339 327 326
3 339 68 81
3 71 68 70
3 73 58 72
3 73 84 74
3 60 73 72
3 60 66 86
3 58 356 363
3 69 336 70
3 336 358 70
3 58 74 88
3 92 80 81
3 77 89 79
3 89 78 79
3 90 81 78
3 82 84 80
3 83 80 91
3 75 84 87
3 82 87 84
3 67 80 86
3 73 85 84
3 58 88 77
3 98 89 88
3 98 90 89
3 91 80 92
3 197 90 98
3 83 82 80
3 91 92 90
3 98 182 183
3 180 97 156
3 93 180 155
3 197 198 91
3 182 76 179
3 98 88 74
3 83 198 82
3 79 78 68
3 339 81 80
3 60 86 85
3 75 87 188
3 74 76 182
3 103 62 105
3 62 102 100
3 62 63 106
3 107 106 108
3 64 109 106
3 61 101 110
3 64 106 65
3 108 106 109
3 61 111 114
3 104 116 110
3 61 110 111
3 101 102 110
3 112 113 111
3 115 112 110
3 178 115 103
3 117 115 118
3 161 178 119
3 126 127 123
3 167 161 160
3 118 113 112
3 108 202 204
3 105 168 170
3 125 124 118
3 26 128 21
3 131 130 129
3 134 137 101
3 134 24 135
3 26 136 135
3 137 136 22
3 140 23 138
3 143 145 27
3 53 144 26
3 56 148 147
3 87 185 188
3 98 183 93
3 154 157 153
3 105 158 168
3 161 122 174
3 159 158 160
3 177 120 119
3 177 119 175
3 87 191 190
3 203 107 108
3 206 285 287
3 206 287 207
3 302 289 288
3 252 240 250
3 299 248 284
3 259 257 256
3 313 220 255
3 398 399 400
3 267 266 398
3 267 398 268
3 271 270 371
3 406 275 377
3 405 276 406
3 277 404 378
3 282 281 280
3 414 282 280
3 405 406 283
3 374 352 380
3 250 290 295
3 298 210 295
3 298 295 294
3 284 206 208
3 250 209 287
3 250 295 209
3 299 301 246
3 301 253 254
3 250 286 247
3 286 285 284
3 295 290 234
3 305 293 292
3 292 302 343
3 298 306 299
3 298 294 297
3 298 299 210
3 298 307 306
3 307 346 306
3 306 304 303
3 345 341 346
3 299 249 248
3 303 300 301
3 308 300 303
3 305 350 344
3 332 310 223
3 322 323 334
3 337 329 328
3 339 326 338
3 337 338 329
3 215 313 312
3 230 232 332
3 258 311 255
3 258 226 229
3 230 309 229
3 317 327 315
3 315 215 214
3 213 316 317
3 317 315 214
3 318 326 316
3 309 319 318
3 320 319 309
3 331 334 337
3 347 321 325
3 321 323 325
3 323 324 325
3 323 327 324
3 323 315 327
3 328 329 330
3 320 309 331
3 362 335 353
3 362 361 335
3 375 349 374
3 348 337 321
3 335 360 338
3 337 335 338
3 339 69 68
3 339 338 336
3 339 347 325
3 339 325 324
3 67 340 339
3 340 65 63
3 340 341 345
3 340 345 348
3 341 342 304
3 343 352 351
3 431 308 303
3 345 344 350
3 343 351 349
3 350 343 349
3 374 349 351
3 338 360 359
3 365 362 364
3 362 354 361
3 363 354 362
3 363 355 354
3 362 353 364
3 375 364 353
3 368 365 367
3 369 367 365
3 369 365 364
3 366 397 396
3 264 370 398
3 374 271 371
3 400 399 371
3 399 265 371
3 372 402 401
3 373 372 401
3 403 378 404
3 403 379 378
3 376 283 406
3 376 406 377
3 380 279 376
3 150 366 396
3 262 261 369
3 370 375 371
3 375 374 371
3 262 370 263
3 272 274 380
3 374 380 274
3 431 281 380
3 380 377 275
3 379 380 378
3 272 380 379
3 26 146 29
3 407 26 260
3 398 400 270
3 264 410 263
3 402 398 401
3 410 272 403
3 405 277 276
3 414 280 411
3 403 404 405
3 282 405 283
3 11 407 394
3 408 394 407
3 407 260 409
3 260 26 397
3 408 407 409
3 414 428 413
3 11 394 412
3 9 428 427
3 9 413 428
3 410 414 413
3 414 411 426
3 410 413 395
3 427 415 6
3 430 429 416
3 416 429 4
3 426 415 427
3 420 425 418
3 419 418 425
3 418 435 426
3 420 426 421
3 414 426 428
3 430 433 429
3 432 433 430
3 417 421 426
3 417 416 422
3 5 424 423
3 4 423 422
3 5 4 433
3 3 424 5
3 5 423 4
3 417 422 421
3 416 4 422
3 431 426 411
3 3 7 440
3 426 435 415
3 390 392 383
3 382 390 383
3 381 388 391
3 389 385 386
3 389 381 385
3 392 387 384
3 34 41 38
3 39 40 44
3 43 35 37
3 36 45 42
3 34 36 42
3 12 36 30
3 419 434 418
3 39 16 31
3 39 37 15
3 34 38 30
3 36 37 35
3 39 38 40
3 40 41 42
3 43 44 45
3 385 383 384
3 394 389 386
3 408 388 389
3 395 392 390
3 395 393 387
3 410 391 409
3 439 438 437
3 436 439 437
3 435 439 436
3 435 434 439
3 439 434 441
3 440 439 441
3 3 5 7
3 7 6 438
3 407 16 15
3 37 13 15
3 12 37 36
3 12 13 37
3 39 31 32
3 39 33 38
3 33 30 38
3 34 30 36
3 39 15 16
3 39 44 43
3 34 42 41
3 43 45 35
3 36 35 45
3 40 42 44
3 44 42 45
3 39 43 37
3 40 38 41
3 39 32 33
3 395 387 392
3 385 384 386
3 386 384 387
3 382 385 381
3 389 388 381
3 382 383 385
3 382 381 390
3 381 391 390
3 392 384 383
3 394 386 387
3 408 389 394
3 408 391 388
3 410 390 391
3 394 387 393
3 394 393 412
3 410 395 390
3 408 409 391
3 415 437 6
3 415 435 436
3 415 436 437
3 7 438 439
3 6 437 438
3 419 3 440
3 419 440 441
3 418 434 435
3 230 231 232
3 322 225 228
3 214 215 212
3 322 222 221
3 219 222 216
3 241 243 242
3 286 284 248
3 250 245 251
3 250 247 245
3 244 254 251
3 252 243 241
3 252 253 243
3 291 240 238
3 291 250 240
3 302 288 237
3 296 295 292
3 309 213 229
3 223 310 224
3 229 226 224
3 255 220 218
3 322 215 314
3 213 211 311
3 215 312 212
3 312 211 212
3 118 201 113
3 200 93 95
3 197 98 200
3 94 195 192
3 155 195 94
3 156 189 184
3 156 97 189
3 161 169 171
3 161 174 169
3 167 162 125
3 167 125 161
3 190 194 196
3 87 190 196
3 198 199 82
3 76 188 187
3 181 182 179
3 105 165 158
3 163 164 162
3 167 165 166
3 121 105 172
3 171 169 170
3 172 173 174
3 178 103 176
3 176 177 175
3 185 186 184
3 188 189 187
3 191 192 190
3 193 194 195
3 203 204 205
3 208 206 207
3 210 209 295
3 213 317 214
3 322 221 215
3 219 217 218
3 220 221 222
3 223 224 225
3 228 226 227
3 234 235 236
3 302 235 289
3 239 237 238
3 240 241 242
3 301 242 243
3 246 244 245
3 248 249 247
3 299 284 208
3 105 107 166
3 125 164 126
3 125 162 164
3 167 160 165
3 167 166 162
3 163 162 166
3 105 166 165
3 171 170 168
3 105 170 173
3 121 174 122
3 121 172 174
3 174 173 169
3 169 173 170
3 178 176 175
3 180 181 97
3 97 181 96
3 180 183 182
3 180 182 181
3 156 186 157
3 156 184 186
3 76 75 188
3 97 96 189
3 96 187 189
3 188 184 189
3 188 185 184
3 191 95 94
3 191 94 192
3 155 154 195
3 154 193 195
3 195 194 192
3 190 192 194
3 196 194 193
3 87 199 95
3 197 200 199
3 197 199 198
3 200 95 199
3 203 127 107
3 123 205 124
3 203 205 123
3 201 205 204
3 201 204 202
3 210 208 207
3 210 207 209
3 214 212 211
3 213 214 211
3 311 211 312
3 215 221 313
3 219 216 217
3 219 218 222
3 220 222 218
3 217 256 255
3 217 255 218
3 313 221 220
3 225 224 228
3 228 224 226
3 322 227 259
3 258 257 226
3 257 227 226
3 332 223 225
3 230 229 231
3 332 232 310
3 234 236 233
3 234 290 289
3 234 289 235
3 302 233 236
3 301 239 242
3 242 239 238
3 240 242 238
3 291 237 288
3 291 238 237
3 252 241 240
3 301 243 253
3 300 237 239
3 299 246 249
3 249 246 245
3 249 245 247
3 244 251 245
3 286 248 247
3 301 244 246
3 252 251 253
3 254 253 251
