ply
format ascii 1.0
comment created by 'decimator'
element vertex 227
property float x
property float y
property float z
element face 450
property list uchar int vertex_indices
end_header
-0.308370 2.370700 0.613720
0.020565 2.494000 0.115660
0.017760 1.879600 0.524560
0.857710 1.856500 0.284990
0.845700 1.276100 0.317070
0.876280 0.872080 0.121320
0.322440 1.902800 -0.669560
-0.723770 0.611490 0.103730
-1.242300 1.050400 0.118870
-0.771610 0.836840 0.463010
-0.769500 0.997480 0.518720
0.333220 0.533670 -0.836800
0.795220 -0.093042 0.032137
0.138210 -0.376250 0.431610
0.122690 -1.730900 0.496850
1.004400 -2.186500 0.594470
0.121780 -2.244800 0.683330
-0.439590 -2.306100 0.815120
-0.786990 -2.414100 0.462660
-0.064873 -1.654400 -0.724470
-0.346140 -1.844700 -0.757970
0.318790 -2.195700 -0.379330
0.781060 -2.555500 -0.117320
0.098051 -2.468100 0.325100
0.181710 2.266500 0.142070
0.215000 2.216600 -0.372560
0.449950 2.104100 0.119620
-0.212910 2.362400 0.671080
-0.340010 2.526800 0.263570
-0.631090 2.045800 -0.399990
1.221300 1.529300 -0.049939
1.046700 1.568900 -0.385320
0.673140 1.805100 -0.582400
0.692850 1.204800 -0.654110
0.474350 1.254200 -0.800380
0.763920 0.983640 -0.444770
-1.165800 1.117800 -0.182090
-1.099400 1.105200 0.484420
-1.098800 1.488600 0.396040
-0.648680 0.583090 0.378270
-0.625860 0.402170 0.103800
0.454390 0.677040 0.609410
0.599220 1.079200 0.780330
0.702130 1.141300 0.723130
-0.152100 0.144200 0.562860
0.820020 -0.029966 -0.098278
-0.197200 -0.163570 0.452890
-0.441740 -0.032440 0.299180
0.679260 -1.038900 -0.700920
1.038200 -1.185900 0.100250
0.813950 -1.307600 0.434560
-0.840730 -0.686390 0.192270
0.808460 -2.113200 0.836940
0.121970 -2.128000 0.665440
-0.717360 -2.295800 0.683760
-0.863790 -2.416400 0.183060
-1.020300 -1.636700 0.124030
-0.728760 -2.417500 -0.158420
-0.495000 -1.920500 -0.668420
0.074826 -2.096400 -0.195600
0.106320 -2.443100 0.010429
0.555740 -2.532600 -0.225600
0.977910 -2.442500 -0.016863
0.118820 -2.348300 0.595940
-0.110320 -2.578500 -0.050778
0.672840 -2.532100 0.143210
-0.579870 2.138700 0.036947
0.193080 2.289200 -0.110740
0.217850 2.034200 0.380620
-0.146450 2.284400 0.729610
-0.223460 1.806600 0.543400
-0.619810 1.381100 0.630390
-0.591770 2.072600 0.179600
0.568430 2.100400 -0.360610
0.886990 2.022700 -0.021480
0.962890 1.648700 0.328510
1.122100 1.142600 0.160170
1.176800 1.156900 0.081637
1.179500 1.465700 0.175580
1.054300 1.885500 0.033989
0.252390 1.737500 -0.768710
0.243820 1.565500 -0.809120
-0.421750 1.877900 -0.653100
-0.628690 1.402000 -0.733070
-1.115600 1.632900 -0.213640
-1.021000 1.575500 -0.410050
-1.074700 1.391200 -0.363400
-1.163200 1.614800 0.106600
-1.233000 1.103100 0.334640
-1.224600 1.202800 0.377140
-1.122900 1.592800 0.288880
0.090755 0.644690 0.639340
-0.290380 0.788750 0.864410
-0.530340 0.762800 0.847320
-0.543480 0.855330 0.860320
-0.535990 0.499340 0.478180
0.715390 1.010700 0.714240
0.638310 1.020000 0.766900
0.751480 1.124400 0.679100
0.837890 0.420860 0.155860
0.587090 -0.073722 -0.589410
0.210270 0.722420 -0.863690
-0.300840 0.697270 -0.838870
-0.356320 -0.280350 -0.670190
0.063298 -0.281330 -0.656020
-0.540560 0.102660 -0.446990
-0.501020 -0.051980 0.224620
-0.605770 -0.008445 -0.109910
0.372780 -0.157700 0.465490
0.664410 -0.196290 0.225470
-0.829920 -0.737460 -0.397880
0.967660 -0.811640 -0.207350
0.952970 -1.240200 0.325210
0.762030 -1.302200 0.453090
0.375060 -0.652660 0.562190
0.281740 -0.616410 0.573780
0.514550 -1.391600 0.525460
0.190940 -1.511600 0.598940
-0.492080 -1.027700 0.529990
-0.074010 -0.671880 0.596760
-0.963730 -1.217400 0.266280
0.649680 -2.039800 0.866550
0.770950 -2.162800 0.822310
0.389140 -2.279000 0.871360
-0.139230 -2.178100 0.830820
-0.184290 -2.306300 0.811070
-0.857810 -2.266400 0.504020
-0.729410 -2.507800 0.174140
-0.832160 -2.391200 -0.012431
-0.920830 -1.702100 -0.287770
-0.947460 -1.476600 -0.290840
-0.670280 -1.557000 -0.760310
-0.079954 -2.468800 -0.213400
-0.162170 -2.578300 -0.197570
-0.247770 -2.544300 -0.268890
-0.640290 -1.728000 -0.734510
-0.429560 -1.406000 -0.870740
-0.063796 -1.195800 -0.735150
-0.053847 -1.849400 -0.613740
0.123570 -2.026800 -0.596950
0.236180 -1.560200 -0.901480
0.430840 -1.487400 -0.878610
0.507830 -1.830700 -0.758470
0.343870 -1.755500 -0.859040
0.459990 -2.153300 -0.489430
0.487950 -2.554500 -0.193650
0.993990 -2.354000 -0.048518
0.347050 -2.325500 0.793680
-0.257550 -2.372300 0.748400
-0.577750 -2.391000 0.688020
-0.626130 -2.510100 0.295010
0.403750 -2.577600 -0.067189
0.858650 -2.535300 0.016403
0.096323 2.354400 0.509600
0.078607 1.920200 0.497830
-0.270120 2.502100 0.030526
-0.148270 2.493200 -0.041169
0.310000 1.930500 0.388030
0.034465 2.473900 0.258240
0.022558 2.303600 0.642960
-0.363550 2.477600 0.430840
-0.388690 1.848400 0.485890
-0.582930 1.876900 0.376730
-0.291770 2.083300 -0.521990
0.896070 1.948200 0.189480
1.004700 1.883500 -0.186220
0.824990 1.977300 -0.332800
1.259200 1.322600 -0.064918
1.212800 1.295500 -0.207100
1.171600 1.348700 -0.291270
-0.408200 1.494200 -0.783790
-0.622700 1.679300 -0.682690
-0.782810 1.247800 -0.618370
-0.716700 0.789240 -0.369500
-0.585930 0.687080 -0.629690
-0.932660 1.838800 -0.323400
-1.038500 1.016300 -0.209970
-1.252900 1.261600 -0.002198
-1.252900 1.390600 0.173160
-1.155600 0.983480 -0.055669
-0.903480 0.724400 0.245850
-1.039000 1.001800 0.484340
-0.391550 0.939220 0.861250
-0.600050 0.845500 0.814750
0.569160 0.677040 0.558910
0.861760 0.819470 -0.050228
0.853030 0.823030 -0.115360
0.724050 -0.044131 -0.427900
0.790740 -0.062229 -0.289240
0.482910 -0.180800 -0.658720
0.319090 -0.343240 -0.687460
-0.431660 -0.131210 -0.628880
0.058551 -0.147750 -0.664780
-0.497160 -0.007318 -0.545030
-0.587930 0.108020 -0.251740
0.529720 -0.226330 0.367890
-0.872490 -0.638770 -0.016771
-0.726700 -0.666210 -0.572300
0.842930 -0.831950 -0.502050
0.312350 -1.581000 0.553000
-0.308120 -1.368600 0.592270
-0.856090 -1.214700 0.402790
0.930820 -1.982500 0.709180
0.822460 -2.051800 0.825270
0.402200 -2.195800 0.889360
-0.472960 -1.939900 0.802880
-0.634250 -2.112200 0.758430
-0.752340 -2.192400 0.668730
-0.902100 -2.323500 0.168570
-0.986760 -1.680500 0.340030
-0.495820 -2.552600 -0.171200
-0.571010 -2.502900 -0.223760
-0.656510 -1.249700 -0.755140
0.004465 -2.104200 -0.173120
-0.338220 -1.492800 -0.869730
0.095537 -1.568800 -0.852770
0.127590 -1.838600 -0.781410
0.398560 -1.998000 -0.694240
0.652410 -1.669400 -0.678290
0.111100 -2.412500 -0.019800
0.284890 -2.505100 -0.145210
0.875040 -2.434500 -0.165020
1.089300 -2.179900 0.169500
1.067400 -2.315900 0.280120
0.998690 -2.353500 0.353400
1.088600 -2.073600 0.462260
0.130440 -2.484300 0.169560
3 159 68 153
3 2 70 182
3 6 163 25
3 78 75 76
3 78 167 30
3 166 31 32
3 33 169 35
3 175 171 85
3 175 29 171
3 8 36 179
3 7 179 176
3 37 38 89
3 70 71 182
3 42 182 92
3 93 92 94
3 35 188 187
3 102 101 192
3 104 103 192
3 46 119 13
3 202 50 203
3 20 58 135
3 19 137 215
3 59 139 21
3 145 142 61
3 72 160 66
3 160 28 66
3 69 0 161
3 24 153 68
3 158 153 67
3 28 156 155
3 67 156 1
3 24 26 67
3 154 42 43
3 1 156 28
3 27 160 0
3 158 160 27
3 2 182 42
3 182 71 94
3 82 171 29
3 75 4 76
3 78 76 77
3 78 79 75
3 76 4 5
3 166 74 165
3 166 165 31
3 31 169 33
3 34 81 80
3 33 35 187
3 34 33 11
3 172 173 86
3 178 89 90
3 180 39 181
3 88 37 89
3 181 71 37
3 182 94 92
3 47 7 40
3 42 92 97
3 75 98 4
3 96 98 43
3 96 184 99
3 99 185 5
3 35 169 168
3 33 187 100
3 112 45 12
3 11 192 101
3 174 102 103
3 174 193 173
3 197 105 193
3 110 105 197
3 47 40 106
3 195 114 50
3 196 194 110
3 196 107 194
3 114 13 115
3 49 222 111
3 112 195 50
3 199 204 116
3 114 108 13
3 195 108 114
3 201 209 207
3 124 118 205
3 121 116 204
3 206 17 205
3 206 207 54
3 55 208 128
3 57 211 128
3 130 110 197
3 130 197 212
3 131 212 136
3 226 133 60
3 132 133 134
3 58 213 132
3 104 136 103
3 20 135 214
3 218 221 142
3 218 48 198
3 145 220 144
3 145 61 22
3 22 61 221
3 144 217 142
3 146 222 62
3 65 122 147
3 63 147 123
3 124 125 16
3 17 149 148
3 150 127 210
3 150 18 127
3 226 23 64
3 145 22 151
3 152 224 65
3 69 27 0
3 69 2 159
3 69 161 70
3 0 160 72
3 156 25 163
3 73 25 156
3 24 68 26
3 158 27 153
3 3 157 43
3 82 29 163
3 6 80 163
3 67 74 73
3 79 165 74
3 164 75 79
3 30 169 31
3 78 30 79
3 168 77 185
3 82 163 80
3 174 173 172
3 176 86 173
3 72 66 87
3 86 36 177
3 86 177 84
3 7 176 173
3 180 88 8
3 88 89 178
3 181 37 88
3 175 87 66
3 72 90 162
3 162 90 38
3 161 38 71
3 47 39 7
3 93 44 92
3 154 43 157
3 75 43 98
3 195 184 41
3 198 48 100
3 190 11 189
3 173 193 105
3 7 173 40
3 110 194 105
3 141 48 218
3 49 45 112
3 202 112 50
3 114 115 117
3 119 115 13
3 119 200 117
3 120 209 201
3 121 203 113
3 202 15 225
3 122 52 123
3 63 123 16
3 124 17 125
3 124 200 118
3 17 54 149
3 55 18 126
3 56 208 209
3 130 56 196
3 57 129 135
3 57 128 129
3 130 196 110
3 211 134 210
3 132 60 133
3 58 132 134
3 57 135 211
3 138 213 58
3 135 131 136
3 137 104 215
3 217 143 142
3 216 217 139
3 144 139 217
3 141 218 142
3 60 219 220
3 146 62 221
3 222 223 62
3 149 18 150
3 149 54 18
3 152 65 151
3 122 15 52
3 158 67 1
3 24 67 153
3 154 68 159
3 154 159 2
3 69 70 2
3 0 72 162
3 29 66 28
3 29 28 155
3 29 155 163
3 155 156 163
3 67 73 156
3 164 74 67
3 164 67 26
3 164 26 157
3 68 157 26
3 154 157 68
3 158 28 160
3 158 1 28
3 159 153 27
3 69 159 27
3 75 3 43
3 154 2 42
3 70 161 71
3 161 162 38
3 161 0 162
3 175 66 29
3 175 84 87
3 166 73 74
3 164 157 3
3 164 3 75
3 4 99 5
3 78 77 167
3 164 79 74
3 166 32 73
3 30 31 165
3 79 30 165
3 30 167 169
3 169 167 168
3 5 185 77
3 76 5 77
3 168 167 77
3 168 185 186
3 35 168 186
3 31 33 34
3 32 31 34
3 6 32 80
3 6 73 32
3 6 25 73
3 32 34 80
3 34 101 81
3 82 80 170
3 81 170 80
3 82 170 171
3 171 170 83
3 83 102 172
3 85 83 172
3 174 191 193
3 85 172 86
3 175 85 84
3 85 86 84
3 171 83 85
3 72 87 90
3 177 178 84
3 176 36 86
3 8 177 36
3 178 87 84
3 178 90 87
3 8 178 177
3 89 38 90
3 176 179 36
3 180 179 7
3 180 8 179
3 88 178 8
3 180 7 39
3 180 181 88
3 181 10 71
3 9 10 181
3 183 71 10
3 71 38 37
3 9 183 10
3 183 94 71
3 39 9 181
3 39 93 9
3 39 95 93
3 93 95 44
3 91 97 92
3 183 93 94
3 44 91 92
3 9 93 183
3 40 107 106
3 91 41 97
3 96 97 184
3 184 97 41
3 43 42 97
3 96 43 97
3 44 41 91
3 44 108 41
3 96 99 98
3 4 98 99
3 99 186 185
3 99 188 35
3 99 35 186
3 46 13 108
3 45 99 12
3 45 188 99
3 198 187 188
3 189 11 33
3 189 33 100
3 198 100 187
3 111 198 188
3 45 111 188
3 34 11 101
3 81 101 170
3 102 170 101
3 102 192 103
3 83 170 102
3 174 172 102
3 190 192 11
3 190 104 192
3 174 103 191
3 197 193 191
3 40 173 105
3 40 194 107
3 40 105 194
3 47 95 39
3 47 46 44
3 47 44 95
3 47 51 201
3 47 106 51
3 51 106 107
3 46 108 44
3 195 41 108
3 195 99 184
3 195 109 99
3 99 109 12
3 112 109 195
3 196 51 107
3 46 118 119
3 214 136 104
3 137 214 104
3 141 140 189
3 190 189 140
3 141 189 48
3 190 140 104
3 189 100 48
3 111 222 146
3 49 111 45
3 49 112 225
3 112 12 109
3 113 203 50
3 116 113 114
3 113 50 114
3 116 114 117
3 119 117 115
3 199 116 117
3 199 117 14
3 120 51 196
3 120 201 51
3 119 118 200
3 205 118 201
3 47 201 46
3 14 117 200
3 124 53 14
3 124 16 53
3 207 209 126
3 204 14 53
3 202 225 112
3 202 203 52
3 122 224 15
3 121 113 116
3 121 52 203
3 121 204 52
3 204 53 16
3 199 14 204
3 204 16 123
3 124 14 200
3 46 201 118
3 124 205 17
3 206 54 17
3 206 205 201
3 126 18 54
3 207 126 54
3 206 201 207
3 55 126 208
3 55 127 18
3 55 128 127
3 209 208 126
3 120 56 209
3 129 128 208
3 129 56 130
3 129 208 56
3 120 196 56
3 211 210 127
3 129 130 131
3 130 212 131
3 197 191 212
3 135 129 131
3 103 136 191
3 212 191 136
3 58 134 211
3 213 219 132
3 59 219 213
3 138 58 20
3 138 139 59
3 19 216 20
3 19 214 137
3 19 20 214
3 58 211 135
3 214 135 136
3 140 215 104
3 216 215 140
3 19 215 216
3 138 20 216
3 138 216 139
3 138 59 213
3 59 21 220
3 216 140 143
3 141 143 140
3 141 142 143
3 216 143 217
3 144 21 139
3 59 220 219
3 220 21 144
3 145 151 220
3 145 144 142
3 111 146 198
3 152 22 62
3 22 221 62
3 49 225 222
3 225 223 222
3 152 223 224
3 218 198 146
3 61 142 221
3 218 146 221
3 223 15 224
3 225 15 223
3 202 52 15
3 204 123 52
3 122 123 147
3 63 23 147
3 125 63 16
3 63 148 23
3 149 150 148
3 17 148 125
3 64 148 150
3 64 23 148
3 64 150 210
3 211 127 128
3 125 148 63
3 134 133 210
3 133 64 210
3 226 64 133
3 132 219 60
3 226 220 151
3 226 60 220
3 226 151 23
3 151 65 23
3 152 151 22
3 152 62 223
3 65 224 122
3 65 147 23
